<mxfile host="app.diagrams.net" modified="2022-05-29T22:02:21.317Z" agent="5.0 (Windows NT 10.0; Win64; x64) AppleWebKit/537.36 (KHTML, like Gecko) Chrome/102.0.5005.62 Safari/537.36" etag="Utkx3Ab-1gBuX8lflonc" version="18.1.3" type="github">
  <diagram id="enSJN7nPV-wxSySBar9t" name="Page-1">
    <mxGraphModel dx="868" dy="450" grid="1" gridSize="10" guides="1" tooltips="1" connect="1" arrows="1" fold="1" page="1" pageScale="1" pageWidth="827" pageHeight="1169" math="0" shadow="0">
      <root>
        <mxCell id="0" />
        <mxCell id="1" parent="0" />
        <mxCell id="5It37EYtNCBh6VqoB0bP-1" value="" style="rounded=0;whiteSpace=wrap;html=1;strokeWidth=5;" vertex="1" parent="1">
          <mxGeometry x="30" y="300" width="160" height="90" as="geometry" />
        </mxCell>
        <mxCell id="5It37EYtNCBh6VqoB0bP-2" value="&lt;b style=&quot;font-size: 16px;&quot;&gt;&lt;font style=&quot;font-size: 16px;&quot;&gt;SCHEDULE&lt;/font&gt;&lt;/b&gt;" style="text;html=1;resizable=0;autosize=1;align=center;verticalAlign=middle;points=[];fillColor=none;strokeColor=none;rounded=0;fontSize=16;" vertex="1" parent="1">
          <mxGeometry x="40" y="335" width="100" height="20" as="geometry" />
        </mxCell>
        <mxCell id="5It37EYtNCBh6VqoB0bP-3" value="" style="endArrow=classic;html=1;rounded=0;fontSize=21;exitX=1.005;exitY=0.446;exitDx=0;exitDy=0;exitPerimeter=0;strokeWidth=2;" edge="1" parent="1" source="5It37EYtNCBh6VqoB0bP-1">
          <mxGeometry width="50" height="50" relative="1" as="geometry">
            <mxPoint x="390" y="390" as="sourcePoint" />
            <mxPoint x="240" y="340" as="targetPoint" />
          </mxGeometry>
        </mxCell>
        <mxCell id="5It37EYtNCBh6VqoB0bP-4" value="" style="rounded=0;whiteSpace=wrap;html=1;strokeWidth=5;" vertex="1" parent="1">
          <mxGeometry x="240" y="300" width="160" height="80" as="geometry" />
        </mxCell>
        <mxCell id="5It37EYtNCBh6VqoB0bP-5" value="&lt;b style=&quot;font-size: 14px;&quot;&gt;&lt;font style=&quot;font-size: 14px;&quot;&gt;STEAM&lt;br style=&quot;font-size: 14px;&quot;&gt;GENERATOR&lt;br style=&quot;font-size: 14px;&quot;&gt;&lt;/font&gt;&lt;/b&gt;" style="text;html=1;resizable=0;autosize=1;align=center;verticalAlign=middle;points=[];fillColor=none;strokeColor=none;rounded=0;fontSize=14;" vertex="1" parent="1">
          <mxGeometry x="250" y="320" width="100" height="40" as="geometry" />
        </mxCell>
        <mxCell id="5It37EYtNCBh6VqoB0bP-6" value="" style="endArrow=classic;html=1;rounded=0;fontSize=21;exitX=1.005;exitY=0.446;exitDx=0;exitDy=0;exitPerimeter=0;strokeWidth=2;" edge="1" parent="1">
          <mxGeometry width="50" height="50" relative="1" as="geometry">
            <mxPoint x="400" y="339.5" as="sourcePoint" />
            <mxPoint x="450" y="340" as="targetPoint" />
          </mxGeometry>
        </mxCell>
        <mxCell id="5It37EYtNCBh6VqoB0bP-8" value="" style="rounded=0;whiteSpace=wrap;html=1;strokeWidth=5;" vertex="1" parent="1">
          <mxGeometry x="450" y="300" width="170" height="90" as="geometry" />
        </mxCell>
        <mxCell id="5It37EYtNCBh6VqoB0bP-9" value="&lt;b style=&quot;font-size: 14px;&quot;&gt;&lt;font style=&quot;font-size: 14px;&quot;&gt;MESSAGE&lt;br&gt;BROKER&lt;br style=&quot;font-size: 14px;&quot;&gt;&lt;/font&gt;&lt;/b&gt;" style="text;html=1;resizable=0;autosize=1;align=center;verticalAlign=middle;points=[];fillColor=none;strokeColor=none;rounded=0;fontSize=14;" vertex="1" parent="1">
          <mxGeometry x="460" y="315" width="90" height="40" as="geometry" />
        </mxCell>
        <mxCell id="5It37EYtNCBh6VqoB0bP-10" value="" style="endArrow=classic;html=1;rounded=0;fontSize=21;strokeWidth=2;" edge="1" parent="1">
          <mxGeometry width="50" height="50" relative="1" as="geometry">
            <mxPoint x="620" y="340" as="sourcePoint" />
            <mxPoint x="659" y="339.52" as="targetPoint" />
          </mxGeometry>
        </mxCell>
        <mxCell id="5It37EYtNCBh6VqoB0bP-11" value="" style="rounded=0;whiteSpace=wrap;html=1;strokeWidth=5;" vertex="1" parent="1">
          <mxGeometry x="660" y="300" width="160" height="90" as="geometry" />
        </mxCell>
        <mxCell id="5It37EYtNCBh6VqoB0bP-12" value="&lt;b style=&quot;font-size: 14px;&quot;&gt;&lt;font style=&quot;font-size: 14px;&quot;&gt;STREAMING&lt;br&gt;SINK&lt;br style=&quot;font-size: 14px;&quot;&gt;&lt;/font&gt;&lt;/b&gt;" style="text;html=1;resizable=0;autosize=1;align=center;verticalAlign=middle;points=[];fillColor=none;strokeColor=none;rounded=0;fontSize=14;" vertex="1" parent="1">
          <mxGeometry x="670" y="320" width="100" height="40" as="geometry" />
        </mxCell>
        <mxCell id="5It37EYtNCBh6VqoB0bP-13" value="" style="endArrow=classic;html=1;rounded=0;fontSize=21;strokeWidth=2;" edge="1" parent="1">
          <mxGeometry width="50" height="50" relative="1" as="geometry">
            <mxPoint x="334.5" y="380" as="sourcePoint" />
            <mxPoint x="334.85" y="440" as="targetPoint" />
          </mxGeometry>
        </mxCell>
        <mxCell id="5It37EYtNCBh6VqoB0bP-14" value="" style="rounded=0;whiteSpace=wrap;html=1;strokeWidth=5;" vertex="1" parent="1">
          <mxGeometry x="270" y="440" width="130" height="80" as="geometry" />
        </mxCell>
        <mxCell id="5It37EYtNCBh6VqoB0bP-15" value="&lt;b style=&quot;font-size: 14px;&quot;&gt;&lt;font style=&quot;font-size: 14px;&quot;&gt;STREAM&lt;br&gt;ALERT&lt;br style=&quot;font-size: 14px;&quot;&gt;&lt;/font&gt;&lt;/b&gt;" style="text;html=1;resizable=0;autosize=1;align=center;verticalAlign=middle;points=[];fillColor=none;strokeColor=none;rounded=0;fontSize=14;" vertex="1" parent="1">
          <mxGeometry x="280" y="450" width="70" height="40" as="geometry" />
        </mxCell>
        <mxCell id="5It37EYtNCBh6VqoB0bP-17" value="" style="shape=image;html=1;verticalAlign=top;verticalLabelPosition=bottom;labelBackgroundColor=#ffffff;imageAspect=0;aspect=fixed;image=https://cdn1.iconfinder.com/data/icons/christmas-line-version-free/100/christmas_line-15-128.png;fontSize=14;strokeWidth=5;" vertex="1" parent="1">
          <mxGeometry x="350" y="460" width="40" height="40" as="geometry" />
        </mxCell>
        <mxCell id="5It37EYtNCBh6VqoB0bP-18" value="" style="sketch=0;pointerEvents=1;shadow=0;dashed=0;html=1;strokeColor=none;fillColor=#505050;labelPosition=center;verticalLabelPosition=bottom;verticalAlign=top;outlineConnect=0;align=center;shape=mxgraph.office.concepts.clock;fontSize=14;" vertex="1" parent="1">
          <mxGeometry x="150" y="335" width="27" height="30" as="geometry" />
        </mxCell>
        <mxCell id="5It37EYtNCBh6VqoB0bP-23" value="" style="sketch=0;outlineConnect=0;fontColor=#232F3E;gradientColor=none;fillColor=#232F3D;strokeColor=none;dashed=0;verticalLabelPosition=bottom;verticalAlign=top;align=center;html=1;fontSize=12;fontStyle=0;aspect=fixed;pointerEvents=1;shape=mxgraph.aws4.gear;" vertex="1" parent="1">
          <mxGeometry x="340" y="310" width="30" height="30" as="geometry" />
        </mxCell>
        <mxCell id="5It37EYtNCBh6VqoB0bP-24" value="" style="html=1;verticalLabelPosition=bottom;align=center;labelBackgroundColor=#ffffff;verticalAlign=top;strokeWidth=2;strokeColor=#000000;shadow=0;dashed=0;shape=mxgraph.ios7.icons.settings;fontSize=14;" vertex="1" parent="1">
          <mxGeometry x="360" y="345" width="30" height="20" as="geometry" />
        </mxCell>
        <mxCell id="5It37EYtNCBh6VqoB0bP-25" value="" style="verticalLabelPosition=bottom;verticalAlign=top;html=1;shape=mxgraph.infographic.cylinder;fillColor=#009900;strokeColor=none;fontSize=14;" vertex="1" parent="1">
          <mxGeometry x="550" y="320" width="60" height="50" as="geometry" />
        </mxCell>
        <mxCell id="5It37EYtNCBh6VqoB0bP-35" value="" style="shape=datastore;whiteSpace=wrap;html=1;fontSize=14;strokeColor=#4D4D4D;strokeWidth=5;fillColor=#B3B3B3;" vertex="1" parent="1">
          <mxGeometry x="770" y="320" width="40" height="60" as="geometry" />
        </mxCell>
      </root>
    </mxGraphModel>
  </diagram>
</mxfile>
